Coordinates
version=1
nRows=14
nColumns=36
inDegrees=yes

Units are S.I. units (second, meters, Newtons, ...)
If the header above contains a line with 'inDegrees', this indicates whether rotational values are in degrees (yes) or radians (no).

endheader
time	pelvis_tilt	pelvis_list	pelvis_rotation	pelvis_tx	pelvis_ty	pelvis_tz	hip_flexion_r	hip_adduction_r	hip_rotation_r	knee_angle_r	knee_angle_r_beta	ankle_angle_r	subtalar_angle_r	mtp_angle_r	hip_flexion_l	hip_adduction_l	hip_rotation_l	knee_angle_l	knee_angle_l_beta	ankle_angle_l	subtalar_angle_l	mtp_angle_l	lumbar_extension	lumbar_bending	lumbar_rotation	arm_flex_r	arm_add_r	arm_rot_r	elbow_flex_r	pro_sup_r	arm_flex_l	arm_add_l	arm_rot_l	elbow_flex_l	pro_sup_l
     10.35000000	     -5.28592316	      1.54348523	      0.71192044	      0.34551963	      0.91724796	      0.01177210	      2.55889621	     -7.59227561	     -9.55460045	      4.41026824	      0.07697370	      6.61985878	     -3.53502527	     -7.49999987	      2.25974093	     -9.02588882	     -5.33428302	      5.84420154	      0.10200056	      4.01182605	      4.07238739	     -7.49999987	      4.56701593	     -2.11021233	     -4.09530344	     57.03787397	     14.58456659	     69.12625938	    122.00248147	     97.09265094	     45.84665197	      6.85162426	     69.43853758	    127.90155881	     87.56429431
     10.36666670	     -5.20304195	      1.53842035	      0.76281323	      0.34569376	      0.91665027	      0.01174392	      2.49806406	     -7.59793898	     -9.64689290	      4.41365633	      0.07703284	      6.77616106	     -3.58203787	     -7.49999987	      2.16452037	     -9.03969428	     -5.42375713	      5.83539884	      0.10184692	      4.17690924	      4.17076773	     -7.49999987	      4.44324922	     -2.08295690	     -4.11636922	     57.09017314	     14.48632119	     69.24403694	    121.95904859	     96.24734914	     45.94623891	      6.89784410	     69.76362384	    128.03326866	     86.76665981
     10.38333330	     -5.20357396	      1.53320849	      0.70079754	      0.34536052	      0.91705632	      0.01179989	      2.56853906	     -7.61335666	     -9.72374158	      4.47128107	      0.07803858	      6.88236195	     -3.52918096	     -7.49999987	      2.16678808	     -9.07008056	     -5.50643108	      5.89871287	      0.10295196	      4.25440724	      4.11476520	     -7.49999987	      4.44242617	     -1.99200538	     -4.05818211	     57.10732830	     14.52519404	     69.12918873	    121.77087360	     98.35653138	     46.03467669	      6.98036608	     69.71198291	    128.27053185	     89.15463696
     10.40000000	     -5.21552438	      1.51440486	      0.73927895	      0.34590240	      0.91679367	      0.01173369	      2.58233716	     -7.58237793	     -9.77217393	      4.56555999	      0.07968405	      7.02275098	     -3.61080959	     -7.49999987	      2.43841266	     -9.09429387	     -5.21160524	      6.33975854	      0.11064966	      4.27221326	      3.70851185	     -7.49999987	      4.45930853	     -1.96428812	     -4.03507370	     57.17078091	     14.56417876	     69.31867463	    121.88688469	     96.45821534	     46.11103100	      7.27355671	     69.96259932	    128.56695675	     87.55967190
     10.41666670	     -5.24094875	      1.50782610	      0.84038529	      0.34556672	      0.91727815	      0.01165839	      2.50880645	     -7.54153520	     -9.87902286	      4.40854583	      0.07694364	      7.05340024	     -3.54641883	     -7.49999987	      2.69606956	     -9.09611563	     -4.93266866	      6.64817596	      0.11603256	      4.28355421	      3.63753063	     -7.49999987	      4.40518228	     -1.89429384	     -4.06394245	     57.24501695	     14.74396771	     69.33912136	    121.88340503	     98.01474024	     46.15181175	      7.31712210	     69.99328495	    128.80973509	     89.25982753
     10.43333330	     -5.24001755	      1.47865871	      0.82093861	      0.34596838	      0.91664502	      0.01169791	      2.37831647	     -7.49519278	     -9.87983379	      4.23232365	      0.07386798	      6.92247314	     -3.67628229	     -7.49999987	      2.81582165	     -9.12665590	     -4.69996155	      6.81267602	      0.11890363	      4.37659581	      3.63444514	     -7.49999987	      4.36424912	     -1.83825961	     -4.08351175	     57.38458004	     14.93018722	     69.41141748	    121.92581758	     96.98061661	     46.39955906	      7.20256826	     70.24561375	    128.96124690	     88.28010059
     10.45000000	     -5.32122130	      1.49816123	      0.82435469	      0.34560478	      0.91684927	      0.01168751	      2.36287818	     -7.49724708	     -9.89604939	      4.13321186	      0.07213816	      6.74102782	     -3.74398157	     -7.49999987	      2.97951472	     -9.09469204	     -4.56309626	      6.87624335	      0.12001309	      4.39108967	      3.71843928	     -7.49999987	      4.39799463	     -1.83752483	     -4.11691537	     57.43803321	     15.07340057	     69.43034148	    122.07766554	     97.99886462	     46.53131532	      7.00905139	     70.46599609	    129.06563781	     89.42349332
     10.46666670	     -5.41459199	      1.53461690	      0.88368487	      0.34609304	      0.91616504	      0.01174732	      2.32969324	     -7.52294212	    -10.02453979	      4.03164472	      0.07036547	      6.53831416	     -3.79877143	     -7.49999987	      3.16664910	     -9.08683340	     -4.48805871	      7.12877173	      0.12442054	      4.21583907	      3.38448271	     -7.49999987	      4.53898805	     -1.92585640	     -4.21039190	     57.40427135	     15.19305307	     69.44766843	    122.24850413	     96.97567880	     46.57385374	      6.83499699	     70.54445867	    129.15429959	     88.29463494
     10.48333330	     -5.33192290	      1.56467704	      0.92938381	      0.34562155	      0.91661548	      0.01179682	      2.10138564	     -7.56073022	    -10.16120879	      3.92177318	      0.06844785	      6.56171564	     -3.63113618	     -7.49999987	      3.09472385	     -9.09003725	     -4.51824428	      7.23533345	      0.12628039	      4.00505578	      3.21124019	     -7.49999987	      4.34798505	     -1.93624901	     -4.11790638	     57.70822506	     15.15460134	     69.51823634	    121.90893081	     97.96956574	     46.86610912	      6.74364415	     70.92732231	    129.16134847	     88.84099207
     10.50000000	     -5.37841949	      1.59325816	      0.91396510	      0.34617279	      0.91578741	      0.01185180	      2.03804261	     -7.59819675	    -10.14852403	      3.82900376	      0.06682872	      6.46777820	     -3.74291018	     -7.49999987	      3.11682693	     -9.09254659	     -4.60390367	      7.27644762	      0.12699797	      3.90617502	      3.17238063	     -7.49999987	      4.43654545	     -2.00408653	     -4.32417455	     57.62312788	     15.29648942	     69.69304760	    121.99234714	     96.49470716	     46.88314615	      6.61313317	     70.81069545	    129.18144863	     87.57225437
     10.51666670	     -5.35478057	      1.58127976	      0.95865573	      0.34614416	      0.91404578	      0.01145774	      1.98494140	     -7.58868008	    -10.41245215	      3.74791005	      0.06541337	      6.77695371	     -3.31012228	     -7.49999987	      3.07689427	     -9.11129121	     -4.67652793	      7.22595276	      0.12611667	      3.81981641	      3.28719346	     -7.49999987	      4.48419578	     -1.93724872	     -4.64881467	     57.73345099	     15.73434999	     69.79184212	    121.51270124	     97.74704323	     46.69825941	      6.48721887	     70.46788172	    129.45308929	     88.51747782
     10.53333330	     -5.38720718	      1.55010876	      0.95835600	      0.34653439	      0.91369115	      0.01134807	      1.98422527	     -7.53439167	    -10.23925837	      3.68475087	      0.06431103	      6.70187252	     -3.52183354	     -7.49999987	      3.06911434	     -9.16064226	     -4.63344677	      7.22447323	      0.12609084	      3.71334704	      3.11823090	     -7.49999987	      4.60162095	     -1.94995261	     -4.71760004	     57.87186567	     15.72090686	     69.64551876	    121.46984118	     96.94460561	     46.84062926	      6.94648008	     70.50457860	    129.43250344	     87.71618781
     10.55000000	     -5.46729158	      1.55863365	      0.91664266	      0.34584492	      0.91637780	      0.01163011	      2.10466476	     -7.55350340	    -10.36833318	      3.70143523	      0.06460223	      6.86384041	     -3.52170984	     -7.49999987	      3.13633688	     -9.15709359	     -4.75240216	      7.16423562	      0.12503950	      3.65751781	      3.31838713	     -7.49999987	      4.63178302	     -1.95581279	     -4.75411776	     57.98822210	     15.70641801	     69.51703622	    121.31314114	     97.99224014	     46.98868169	      6.87464176	     70.26830675	    129.19532810	     88.45437492
     10.56666670	     -5.41719343	      1.51970712	      0.97592691	      0.34713855	      0.91648565	      0.01115984	      2.09851870	     -7.54190367	    -10.44606948	      3.79506600	      0.06623640	      6.75192830	     -3.70107126	     -7.49999987	      3.06436445	     -9.17385211	     -4.69238175	      7.11113960	      0.12411280	      3.63061778	      3.27908477	     -7.49999987	      4.52219916	     -1.92878935	     -4.81333605	     58.11612960	     15.61369821	     69.64364897	    121.29427065	     96.60647381	     47.14694013	      6.86235222	     70.29945359	    128.99660235	     87.20393441
